<svg version="1.1" id="Layer_1" xmlns="http://www.w3.org/2000/svg" xmlns:xlink="http://www.w3.org/1999/xlink" x="0px" y="0px"
	 width="100%" viewBox="0 0 428 412" enable-background="new 0 0 428 412" xml:space="preserve">
<path fill="#F40907" opacity="1.000000" stroke="none" 
	d="
M260.305420,180.999756 
	C260.291687,144.168198 260.422272,107.835472 260.122681,71.506294 
	C260.072540,65.426598 258.156250,59.362286 256.994659,52.670998 
	C258.362976,52.530659 259.929688,52.233810 261.497070,52.230412 
	C276.163055,52.198608 290.838104,51.894878 305.492981,52.302124 
	C324.052856,52.817890 333.974274,64.425621 338.703857,80.635948 
	C342.720306,94.402138 344.084351,108.776894 342.523499,122.920784 
	C341.261200,134.359390 341.821960,146.323929 335.820831,157.060852 
	C332.768219,162.522537 329.222778,165.689194 322.733276,167.612228 
	C323.407196,168.613937 323.860748,169.684647 324.643219,170.390945 
	C334.562225,179.344223 338.808655,191.036438 340.829865,203.792664 
	C341.266724,206.549805 341.598389,209.346939 341.674744,212.133987 
	C342.102783,227.749908 341.912994,243.404358 342.980133,258.973969 
	C343.753021,270.250885 345.959747,281.450653 347.956848,292.607880 
	C348.461426,295.426880 350.610260,297.951538 352.219727,301.024353 
	C350.766663,301.368652 350.007050,301.704681 349.247131,301.705261 
	C338.081604,301.713776 326.915192,301.748962 315.750854,301.617798 
	C311.138458,301.563629 311.075470,300.532288 312.085693,296.131378 
	C314.140656,287.179138 316.465088,278.120300 316.948212,269.013580 
	C317.750549,253.889481 317.965576,238.639984 316.935333,223.545166 
	C316.217529,213.028381 313.535645,202.535614 310.722900,192.309433 
	C308.753571,185.149521 300.512543,181.375427 291.344330,182.060852 
	C290.831055,189.201904 289.950775,196.401337 289.864716,203.610245 
	C289.623901,223.773697 289.697540,243.941040 289.674652,264.106873 
	C289.660797,276.320129 288.805145,288.627991 294.313385,301.040955 
	C281.286163,301.040955 269.057770,301.040955 256.078735,301.040955 
	C257.243256,297.383911 258.833221,294.391449 259.062073,291.298248 
	C259.758545,281.884979 260.202606,272.434296 260.253540,262.995544 
	C260.400146,235.830994 260.305359,208.665131 260.305420,180.999756 
M306.521576,151.257263 
	C309.082306,146.970749 313.479034,142.842300 313.864227,138.368469 
	C315.086243,124.175110 314.994629,109.852531 314.969696,95.580688 
	C314.964325,92.503136 313.176514,89.406425 312.098633,86.357834 
	C310.098755,80.701447 298.127045,77.407974 290.173676,79.538750 
	C290.173676,104.341415 290.173676,129.151794 290.173676,155.411682 
	C295.973297,154.097214 300.983887,152.961578 306.521576,151.257263 
z"/>
<path fill="#FC0702" opacity="1.000000" stroke="none" 
	d="
M132.667542,71.228424 
	C132.721710,71.564453 132.775879,71.900490 132.684448,72.855026 
	C132.548859,74.951248 132.398056,76.450859 132.595688,77.903038 
	C133.666733,85.773254 135.752914,93.626274 135.799255,101.495171 
	C136.079330,149.075317 136.267441,196.663315 135.600052,244.236252 
	C135.444885,255.297073 132.269882,266.409729 129.653000,277.298706 
	C128.492035,282.129578 125.264343,286.463745 122.974777,291.023376 
	C122.974770,291.023376 122.979469,290.976562 122.759247,291.098785 
	C122.333580,291.516815 122.128143,291.812653 121.922714,292.108490 
	C121.854317,292.366791 121.712669,292.575378 120.942764,292.846008 
	C117.913239,294.636963 115.438744,296.316071 112.964256,297.995209 
	C112.964256,297.995209 112.982895,297.979553 112.749893,298.028564 
	C112.258484,298.282623 112.000069,298.487732 111.741646,298.692810 
	C111.407997,298.735931 111.074356,298.779053 110.134293,298.656097 
	C107.346382,298.994019 105.164879,299.498016 102.983376,300.002014 
	C102.983376,300.002014 102.995346,299.992432 102.542770,299.957092 
	C98.296036,299.857727 94.498367,299.874573 90.708603,299.709808 
	C85.698677,299.491913 80.694939,299.131866 75.688538,298.832947 
	C75.351952,298.823486 75.015373,298.813995 74.260696,298.574951 
	C73.578400,298.144562 73.281212,298.027435 72.951042,297.994080 
	C72.951042,297.994080 73.008179,297.984863 72.843628,297.719238 
	C71.455887,296.959412 70.232689,296.465179 69.009491,295.970947 
	C69.009499,295.970947 69.003403,295.995026 68.938194,295.651489 
	C66.934235,294.192047 64.995476,293.076141 63.056725,291.960266 
	C63.056721,291.960266 63.000359,291.994476 62.950825,291.721527 
	C62.619675,291.293365 62.338058,291.138184 62.056438,290.982971 
	C62.056438,290.982971 62.003716,291.002869 61.992012,290.620056 
	C54.025215,277.321106 50.022476,263.190887 49.978966,248.109131 
	C49.840733,200.193344 49.868690,152.276627 50.030651,104.360947 
	C50.053978,97.459259 51.053314,90.548759 51.813076,83.665749 
	C52.356331,78.744194 53.254234,73.861778 53.993893,68.961899 
	C53.993893,68.961899 54.008747,69.004974 54.289997,68.861282 
	C55.457390,67.538338 56.650639,66.482658 57.182491,65.160851 
	C62.934071,50.866432 75.040085,47.407856 88.723915,45.970161 
	C98.290649,44.965034 107.019333,48.260906 116.073982,49.974003 
	C116.073982,49.974003 116.006470,49.987778 116.150345,50.256317 
	C121.085594,55.793888 125.876976,61.062920 130.668350,66.331947 
	C130.732300,66.663887 130.796234,66.995834 130.795074,67.827896 
	C131.375809,69.294823 132.021667,70.261627 132.667542,71.228424 
M102.796883,73.427559 
	C102.468246,73.257301 102.139603,73.087044 101.526009,72.886826 
	C101.526009,72.886826 101.259003,72.782852 100.806320,72.239563 
	C97.598946,69.190292 94.571083,69.673424 91.183937,72.798210 
	C90.852226,72.819588 90.520416,72.821434 89.605423,72.598930 
	C87.744057,74.083336 85.882690,75.567734 83.997894,77.002457 
	C83.997894,77.002457 84.050682,77.017258 83.379539,77.247635 
	C79.589310,80.660103 76.790375,91.892845 78.758141,96.227173 
	C79.135986,97.059433 80.048477,97.648979 80.807022,98.812210 
	C80.831299,99.126282 80.826866,99.439957 80.472305,100.514442 
	C80.574112,103.147247 80.713058,105.779236 80.771507,108.413002 
	C81.076996,122.178162 82.225334,135.994904 81.414085,149.695023 
	C80.584427,163.705841 77.801933,177.599167 75.923531,191.550552 
	C75.082764,197.795105 74.693771,204.118759 73.521233,210.296707 
	C70.672455,225.306488 70.229630,240.374924 72.485168,255.419952 
	C73.101845,259.533386 73.034943,264.684204 77.980110,267.019806 
	C77.980110,267.019806 77.975838,266.980286 78.048080,267.695953 
	C80.489487,272.534424 89.031502,276.862030 94.272987,275.754822 
	C95.268532,275.544495 96.107986,274.595276 97.010849,274.013336 
	C97.010849,274.013336 96.983322,274.016846 97.764114,274.018646 
	C101.531822,273.901794 104.327614,272.014984 105.258011,268.504852 
	C107.064728,261.688629 109.574928,254.762741 109.675697,247.851379 
	C109.893021,232.946289 108.747208,218.022522 108.206497,203.104660 
	C107.941727,195.800079 108.254684,188.441254 107.480545,181.195160 
	C105.706833,164.593063 108.015892,148.318115 111.305138,132.221359 
	C113.566330,121.155640 117.506592,110.294907 115.684326,98.886475 
	C114.810944,93.418549 111.981689,88.263031 110.002457,82.998016 
	C110.002457,82.998016 110.045395,82.977325 110.085716,82.270767 
	C109.394920,81.170387 108.704132,80.070007 108.010590,78.993004 
	C108.010590,78.993004 108.035248,78.990654 107.966843,78.294525 
	C106.327644,76.846542 104.688446,75.398567 103.003510,74.000671 
	C103.003510,74.000671 103.032143,73.940651 102.796883,73.427559 
z"/>
<path fill="#D1111D" opacity="1.000000" stroke="none" 
	d="
M206.888901,129.927719 
	C199.654037,131.879593 192.499023,134.270050 185.152313,135.607422 
	C181.184753,136.329697 180.834152,138.152649 180.854874,141.313232 
	C180.941208,154.475433 180.890671,167.638489 180.893143,180.801239 
	C180.899475,214.291382 180.764023,247.782776 181.057999,281.270416 
	C181.106049,286.744202 183.045135,292.202484 184.124039,297.665222 
	C184.337845,298.747772 184.615021,299.817810 184.869431,300.921661 
	C184.145096,301.285858 183.728058,301.677338 183.308701,301.679840 
	C172.647934,301.743439 161.986908,301.783691 151.325943,301.786377 
	C147.858932,301.787262 146.721527,300.798462 148.063721,296.888489 
	C149.694107,292.139038 150.948715,286.982208 150.961853,281.997894 
	C151.146713,211.850861 151.164352,141.702988 150.966721,71.556030 
	C150.949921,65.596428 149.108719,59.641972 148.064285,53.380814 
	C150.387894,51.836216 172.188141,51.097168 185.143280,52.658577 
	C177.661224,70.647545 182.536652,89.502762 180.314850,108.941711 
	C191.899796,108.203667 202.334488,103.512184 214.047241,101.718170 
	C213.746307,85.579895 216.347763,69.183411 208.943954,52.813011 
	C222.090683,52.813011 234.752975,52.813011 246.177765,52.813011 
	C245.047516,61.792488 243.073090,70.336205 243.038589,78.887756 
	C242.773819,144.535553 242.771683,210.185349 243.038513,275.833099 
	C243.068832,283.289001 245.271088,290.735657 246.458862,298.187775 
	C246.608597,299.127258 246.713074,300.073975 246.871521,301.265472 
	C234.274734,301.265472 221.971054,301.265472 208.745438,301.265472 
	C216.346619,285.657501 214.019485,269.769897 214.092300,254.183746 
	C214.278381,214.362244 214.125031,174.539139 214.107590,134.716675 
	C214.106812,132.917969 214.107498,131.119278 214.107498,128.957062 
	C211.612076,129.327911 209.682831,129.614624 207.528839,129.583817 
	C212.953659,126.764427 216.192596,127.741508 216.185547,131.952454 
	C216.115814,173.608063 216.156815,215.264374 215.900482,256.918854 
	C215.826080,269.010284 215.029083,281.104584 214.284027,293.180328 
	C214.050934,296.958221 215.104797,298.993439 218.984558,299.129822 
	C224.941177,299.339203 230.912292,299.325378 236.852844,299.748901 
	C242.825394,300.174652 243.803467,299.051392 243.081360,292.997223 
	C242.196564,285.579010 241.235840,278.108398 241.216934,270.658142 
	C241.071381,213.336853 241.067993,156.014832 241.211441,98.693504 
	C241.244644,85.423912 239.785278,72.031883 243.653946,58.951389 
	C244.572998,55.843925 243.307816,53.867973 239.568024,53.927773 
	C231.905060,54.050308 224.238144,53.999325 216.573730,53.926491 
	C213.175751,53.894203 212.166702,55.130299 213.152756,58.528362 
	C217.020325,71.856506 216.021500,85.565094 215.772614,99.170204 
	C215.743317,100.771561 213.551376,103.303192 211.914200,103.745262 
	C202.478439,106.293083 192.899826,108.307861 183.386581,110.574448 
	C178.802917,111.666534 177.891678,110.803459 178.322311,106.034027 
	C178.725357,101.570099 178.760696,97.074249 179.085114,92.601677 
	C179.923996,81.036789 180.938019,69.482635 181.560730,57.906906 
	C181.626984,56.675201 179.610199,54.252335 178.487656,54.208019 
	C170.169342,53.879646 161.829620,53.908291 153.506409,54.154770 
	C152.607544,54.181385 150.941055,56.388214 151.037125,57.457352 
	C151.794159,65.883095 153.715927,74.274361 153.754120,82.683167 
	C154.007629,138.503967 153.901337,194.326523 153.842545,250.148453 
	C153.836945,255.458710 152.473694,260.906708 153.281921,266.048523 
	C154.779404,275.575378 152.788361,284.605011 150.996170,293.710541 
	C150.391418,296.783112 150.673355,298.924652 154.065598,298.994049 
	C162.370697,299.164001 170.685364,299.122620 178.986389,298.858063 
	C179.860550,298.830200 181.452271,296.701996 181.386520,295.629425 
	C180.771240,285.591522 179.261795,275.577484 179.159439,265.544861 
	C178.853439,235.554199 179.066666,205.558258 179.075089,175.564377 
	C179.078369,163.900101 178.956223,152.233429 179.189667,140.573822 
	C179.230438,138.537155 180.402588,135.048691 181.654572,134.749252 
	C189.974472,132.759338 198.458344,131.455002 206.888901,129.927719 
z"/>
<path fill="#F20A09" opacity="1.000000" stroke="none" 
	d="
M395.342834,278.920410 
	C398.073578,287.249146 396.272247,294.000885 390.378632,300.008514 
	C382.047821,308.500458 364.181946,305.671509 358.635468,292.719238 
	C353.427765,280.557922 366.489685,264.736816 378.441528,266.257690 
	C386.281189,267.255341 391.594391,271.754211 395.342834,278.920410 
z"/>
<path fill="#D3121F" opacity="1.000000" stroke="none" 
	d="
M281.664551,354.868164 
	C283.843994,345.576935 288.954742,339.499146 297.894562,336.877777 
	C310.136536,333.288025 325.457184,341.671265 325.987854,356.725586 
	C326.284943,365.153381 323.211304,371.543427 316.808167,376.436646 
	C307.955353,383.201782 287.241547,381.418518 283.130524,365.703278 
	C282.236603,362.286255 281.970764,358.704926 281.664551,354.868164 
M306.687592,341.857574 
	C296.688477,339.523743 287.428070,348.260834 287.771912,357.202545 
	C288.197601,368.271667 296.303192,376.652161 305.885590,375.003143 
	C313.812164,373.639130 319.687286,367.553253 320.161896,360.214752 
	C320.804840,350.273743 316.857300,344.560028 306.687592,341.857574 
z"/>
<path fill="#D50D19" opacity="1.000000" stroke="none" 
	d="
M196.920502,350.022583 
	C196.918732,355.846436 196.567886,361.202881 196.998703,366.495667 
	C197.645203,374.438171 190.344986,380.524292 182.916061,380.716888 
	C176.338379,380.887421 168.306427,376.795258 168.130356,367.284454 
	C167.964706,358.336670 167.416245,349.391632 167.482697,340.448700 
	C167.492386,339.143036 169.983078,337.855774 171.325790,336.559998 
	C171.870224,336.894775 172.414658,337.229553 172.959091,337.564362 
	C172.959091,346.181305 172.896988,354.798828 172.979218,363.415009 
	C173.042343,370.029327 175.559311,373.813904 180.340988,374.885712 
	C186.398697,376.243561 190.963638,372.768219 191.052567,366.542542 
	C191.164307,358.719086 191.102356,350.893158 191.128250,343.068390 
	C191.132111,341.904633 190.794342,340.464203 191.346024,339.643280 
	C192.148926,338.448608 193.615967,337.700256 194.799820,336.761566 
	C195.501129,337.853149 196.703461,338.899231 196.807541,340.045044 
	C197.092529,343.183167 196.915436,346.363190 196.920502,350.022583 
z"/>
<path fill="#C11528" opacity="1.000000" stroke="none" 
	d="
M53.683437,69.160065 
	C53.254234,73.861778 52.356331,78.744194 51.813076,83.665749 
	C51.053314,90.548759 50.053978,97.459259 50.030651,104.360947 
	C49.868690,152.276627 49.840733,200.193344 49.978966,248.109131 
	C50.022476,263.190887 54.025215,277.321106 62.001350,290.593536 
	C59.392387,286.861542 56.113773,283.045624 54.260002,278.631348 
	C49.613010,267.565704 48.145966,255.746033 48.122444,243.832520 
	C48.026386,195.188446 47.818867,146.541031 48.342964,97.902298 
	C48.445671,88.370651 51.616966,78.872063 53.683437,69.160065 
z"/>
<path fill="#D6111E" opacity="1.000000" stroke="none" 
	d="
M104.063339,350.745331 
	C108.454353,354.446960 113.288422,357.316864 116.565536,361.427856 
	C122.648201,369.058350 117.926712,379.054077 108.261833,379.868256 
	C104.411720,380.192627 100.511444,379.921570 96.796280,379.921570 
	C95.612328,376.270599 96.628296,374.985260 99.848579,375.037476 
	C102.639488,375.082733 105.534523,375.137299 108.210960,374.482422 
	C113.917366,373.086151 115.445053,367.832062 111.289223,363.782837 
	C108.483627,361.049255 105.145531,358.856934 102.013100,356.465118 
	C95.206902,351.268158 94.980141,345.635651 97.008148,342.162628 
	C99.624252,337.682373 108.807365,334.214691 113.724739,336.411560 
	C114.950783,336.959320 115.429970,339.178772 115.888130,339.987122 
	C110.998848,341.397583 106.876076,342.257141 103.149971,343.976379 
	C102.505814,344.273621 103.543221,348.215302 104.063339,350.745331 
z"/>
<path fill="#DD0C14" opacity="1.000000" stroke="none" 
	d="
M145.018234,341.977722 
	C144.966507,343.823456 144.872818,345.669159 144.870102,347.514954 
	C144.856430,356.822784 144.930817,366.131561 144.796158,375.437408 
	C144.776810,376.774597 144.133026,378.862518 143.187515,379.286865 
	C140.117096,380.664948 139.082352,378.807068 139.084396,375.893677 
	C139.092148,364.922516 139.045380,353.951355 138.655273,342.266418 
	C134.883911,341.348328 131.476334,341.144043 128.068741,340.939758 
	C128.068741,340.939758 127.999634,340.993164 128.127625,340.599365 
	C129.731918,339.445435 131.134750,338.401215 132.702759,337.995636 
	C134.756973,337.464325 136.941605,337.437164 139.070129,337.193115 
	C139.070129,337.193146 139.436340,337.087921 140.029495,337.107605 
	C141.424484,337.079041 142.226318,337.030792 143.028152,336.982544 
	C143.028152,336.982544 142.993179,337.012238 143.335327,337.201630 
	C146.875854,337.788300 150.074249,338.185547 153.272644,338.582825 
	C153.261566,339.043396 153.250473,339.503967 153.239395,339.964539 
	C150.499008,340.635590 147.758621,341.306641 145.018234,341.977722 
z"/>
<path fill="#F20B0A" opacity="1.000000" stroke="none" 
	d="
M245.900452,365.150696 
	C245.900452,365.150696 245.862259,365.403198 245.522552,365.738770 
	C244.775925,367.379517 244.369003,368.684692 243.962082,369.989899 
	C243.962082,369.989899 243.989670,369.993286 243.656067,370.062195 
	C240.878372,371.760681 238.434280,373.390289 236.002594,374.661987 
	C236.698395,372.566986 237.381760,370.829895 238.050293,369.053497 
	C238.035477,369.014191 238.113266,369.045929 238.338547,368.966675 
	C238.848404,368.696869 239.008118,368.431244 239.028625,368.056091 
	C239.014282,368.021637 239.087830,368.034180 239.304993,367.928345 
	C239.790329,367.616028 239.957001,367.346680 240.011597,367.008301 
	C240.001068,367.002136 240.015656,367.024902 240.254669,366.970795 
	C240.705582,366.237518 240.917496,365.558380 241.140564,364.586823 
	C241.201141,363.908295 241.250565,363.522156 241.527267,362.917725 
	C241.926804,360.757935 242.099075,358.816376 242.206345,356.685852 
	C242.141357,356.496826 242.076065,356.102448 242.089355,355.733032 
	C241.817093,354.182220 241.531525,353.000824 241.187653,351.655029 
	C241.129349,351.490662 241.072845,351.146454 241.006683,350.831543 
	C240.379349,349.893585 239.818192,349.270538 239.188766,348.520325 
	C239.120514,348.393097 239.075531,348.107910 238.974396,347.861877 
	C238.595276,347.407806 238.317307,347.199799 238.018585,346.997498 
	C237.997849,347.003265 238.012589,346.962921 237.929321,346.738159 
	C237.663589,346.227631 237.406403,346.050140 237.040619,345.984711 
	C237.006744,345.988525 237.024323,345.922638 236.946594,345.690430 
	C236.671066,345.166534 236.396439,345.007355 236.023102,344.991943 
	C236.001236,345.003265 236.013000,344.955658 235.901520,344.737732 
	C235.580917,344.253113 235.313568,344.072540 235.002136,343.981873 
	C235.016235,343.985657 235.024567,344.013702 234.870270,343.710571 
	C233.466415,342.934326 232.216888,342.461212 230.990540,341.985413 
	C231.013718,341.982697 231.020187,342.028931 230.824463,341.706604 
	C226.961121,339.648651 223.343430,338.759369 219.973236,341.997742 
	C219.976334,341.982513 220.003464,341.967255 219.685791,342.174957 
	C219.012024,343.106232 218.354324,343.826324 218.345856,344.553986 
	C218.244308,353.287659 218.174316,362.023315 218.290222,370.755890 
	C218.304718,371.848877 219.434052,372.927063 220.017120,374.012817 
	C219.987396,374.013519 219.988144,373.954071 220.187164,374.273987 
	C224.371140,376.426727 228.298096,377.073242 232.030289,374.024048 
	C232.016235,374.024231 232.009521,374.051727 232.355453,374.096649 
	C233.806351,374.428925 234.911331,374.716278 235.781357,375.285095 
	C230.923920,376.450195 226.324524,377.492157 221.672104,378.170502 
	C217.480850,378.781647 215.662170,376.811798 215.754639,372.453918 
	C215.941620,363.639191 215.768036,354.817261 215.788620,345.998444 
	C215.806732,338.239655 215.835495,338.270050 223.832153,337.908813 
	C225.301987,337.842438 226.755676,337.418488 228.216812,337.159607 
	C228.616623,337.177155 229.016434,337.194702 229.979004,337.466919 
	C232.703171,338.489960 234.864594,339.258362 237.026016,340.026764 
	C237.026016,340.026764 236.976990,340.023987 237.066925,340.325897 
	C240.110886,344.426086 243.064911,348.224335 246.018936,352.022583 
	C246.018936,352.022583 245.982559,352.011200 245.967026,352.458069 
	C245.934479,356.986877 245.917465,361.068787 245.900452,365.150696 
z"/>
<path fill="#C11528" opacity="1.000000" stroke="none" 
	d="
M123.322510,290.968506 
	C125.264343,286.463745 128.492035,282.129578 129.653000,277.298706 
	C132.269882,266.409729 135.444885,255.297073 135.600052,244.236252 
	C136.267441,196.663315 136.079330,149.075317 135.799255,101.495171 
	C135.752914,93.626274 133.666733,85.773254 132.595688,77.903038 
	C132.398056,76.450859 132.548859,74.951248 132.685303,73.111069 
	C134.205383,79.954445 136.723145,87.152901 136.769699,94.367310 
	C137.109512,147.023911 137.332306,199.688309 136.695465,252.339386 
	C136.529068,266.095764 134.093979,280.121460 123.322510,290.968506 
z"/>
<path fill="#CE1121" opacity="1.000000" stroke="none" 
	d="
M262.159973,354.003235 
	C262.175385,348.842621 262.041473,344.172455 262.312836,339.525970 
	C262.378693,338.398590 263.779846,337.349213 264.566956,336.263977 
	C265.355560,337.342041 266.815369,338.411072 266.830048,339.499603 
	C266.998352,351.983643 267.032684,364.472137 266.813385,376.954376 
	C266.792786,378.125275 264.802643,379.261597 263.726929,380.413971 
	C263.204529,380.065491 262.682098,379.716980 262.159668,379.368469 
	C262.159668,371.079803 262.159668,362.791107 262.159973,354.003235 
z"/>
<path fill="#BD1B33" opacity="1.000000" stroke="none" 
	d="
M235.990189,375.019867 
	C238.434280,373.390289 240.878372,371.760681 243.651123,370.049469 
	C240.661499,377.618683 233.657867,379.608765 226.576782,379.799042 
	C211.672394,380.199524 214.259140,381.611969 214.079514,368.182678 
	C213.959213,359.188721 214.220749,350.188110 214.011154,341.197510 
	C213.919601,337.270752 215.298706,335.656036 219.208420,336.026855 
	C222.011444,336.292633 224.836304,336.328278 227.934113,336.813110 
	C226.755676,337.418488 225.301987,337.842438 223.832153,337.908813 
	C215.835495,338.270050 215.806732,338.239655 215.788620,345.998444 
	C215.768036,354.817261 215.941620,363.639191 215.754639,372.453918 
	C215.662170,376.811798 217.480850,378.781647 221.672104,378.170502 
	C226.324524,377.492157 230.923920,376.450195 235.768890,375.278992 
	C235.991394,374.991486 235.990189,375.019867 235.990189,375.019867 
z"/>
<path fill="#C11528" opacity="1.000000" stroke="none" 
	d="
M115.918152,49.642914 
	C107.019333,48.260906 98.290649,44.965034 88.723915,45.970161 
	C75.040085,47.407856 62.934071,50.866432 57.182491,65.160851 
	C56.650639,66.482658 55.457390,67.538338 54.267258,68.862579 
	C56.583183,58.561394 62.748466,50.832954 73.002625,47.648636 
	C86.799301,43.364227 100.839340,43.391708 114.631027,48.353611 
	C115.066658,48.510338 115.387810,48.985249 115.918152,49.642914 
z"/>
<path fill="#C11528" opacity="1.000000" stroke="none" 
	d="
M75.993713,299.135162 
	C80.694939,299.131866 85.698677,299.491913 90.708603,299.709808 
	C94.498367,299.874573 98.296036,299.857727 102.549667,299.953583 
	C96.260223,302.793762 89.352798,301.310669 82.494720,300.671722 
	C80.409210,300.477417 78.363068,299.860657 75.993713,299.135162 
z"/>
<path fill="#C11528" opacity="1.000000" stroke="none" 
	d="
M130.686142,65.956017 
	C125.876976,61.062920 121.085594,55.793888 116.153473,50.222008 
	C123.411873,52.792320 127.699997,58.583866 130.686142,65.956017 
z"/>
<path fill="#B01531" opacity="1.000000" stroke="none" 
	d="
M145.468414,341.956543 
	C147.758621,341.306641 150.499008,340.635590 153.239395,339.964539 
	C153.250473,339.503967 153.261566,339.043396 153.272644,338.582825 
	C150.074249,338.185547 146.875854,337.788300 143.333328,337.178772 
	C145.432007,336.657745 147.866959,336.227173 150.319489,336.069000 
	C153.894913,335.838379 155.766434,337.267944 154.474426,341.935364 
	C151.761398,341.935364 148.840012,341.935364 145.468414,341.956543 
z"/>
<path fill="#BD1B33" opacity="1.000000" stroke="none" 
	d="
M246.007828,351.633423 
	C243.064911,348.224335 240.110886,344.426086 237.065414,340.301392 
	C241.960266,342.147125 245.376053,345.576721 246.007828,351.633423 
z"/>
<path fill="#B01531" opacity="1.000000" stroke="none" 
	d="
M138.663025,337.101929 
	C136.941605,337.437164 134.756973,337.464325 132.702759,337.995636 
	C131.134750,338.401215 129.731918,339.445435 128.161804,340.569763 
	C125.657608,338.032227 127.854797,336.576935 130.112427,336.305084 
	C132.760223,335.986267 135.535782,336.728607 138.663025,337.101929 
z"/>
<path fill="#BD1B33" opacity="1.000000" stroke="none" 
	d="
M246.225830,364.914856 
	C245.917465,361.068787 245.934479,356.986877 245.971100,352.439453 
	C248.989380,356.084930 248.515915,360.349091 246.225830,364.914856 
z"/>
<path fill="#C11528" opacity="1.000000" stroke="none" 
	d="
M113.324539,297.972107 
	C115.438744,296.316071 117.913239,294.636963 120.764420,292.917114 
	C118.655670,294.567261 116.170242,296.258118 113.324539,297.972107 
z"/>
<path fill="#C11528" opacity="1.000000" stroke="none" 
	d="
M103.403267,299.998169 
	C105.164879,299.498016 107.346382,298.994019 109.881271,298.645691 
	C108.097488,299.198975 105.960327,299.596649 103.403267,299.998169 
z"/>
<path fill="#C11528" opacity="1.000000" stroke="none" 
	d="
M63.166862,292.279724 
	C64.995476,293.076141 66.934235,294.192047 68.949127,295.646484 
	C67.109177,294.856384 65.193085,293.727814 63.166862,292.279724 
z"/>
<path fill="#B01531" opacity="1.000000" stroke="none" 
	d="
M128.336594,341.252991 
	C131.476334,341.144043 134.883911,341.348328 138.605286,341.803467 
	C135.480850,341.891571 132.042648,341.728882 128.336594,341.252991 
z"/>
<path fill="#BD1B33" opacity="1.000000" stroke="none" 
	d="
M236.880081,339.697998 
	C234.864594,339.258362 232.703171,338.489960 230.273468,337.525879 
	C232.248169,338.009888 234.491150,338.689545 236.880081,339.697998 
z"/>
<path fill="#C11528" opacity="1.000000" stroke="none" 
	d="
M132.751709,70.886024 
	C132.021667,70.261627 131.375809,69.294823 130.825012,68.080460 
	C131.558685,68.736473 132.197281,69.640053 132.751709,70.886024 
z"/>
<path fill="#C11528" opacity="1.000000" stroke="none" 
	d="
M69.155510,296.273682 
	C70.232689,296.465179 71.455887,296.959412 72.846336,297.748047 
	C71.776237,297.553802 70.538879,297.065094 69.155510,296.273682 
z"/>
<path fill="#BD1B33" opacity="1.000000" stroke="none" 
	d="
M244.275024,369.830322 
	C244.369003,368.684692 244.775925,367.379517 245.457214,365.848480 
	C245.350372,366.972015 244.969162,368.321381 244.275024,369.830322 
z"/>
<path fill="#B01531" opacity="1.000000" stroke="none" 
	d="
M142.872086,336.690552 
	C142.226318,337.030792 141.424484,337.079041 140.219147,337.089417 
	C140.782425,336.833862 141.749222,336.616211 142.872086,336.690552 
z"/>
<path fill="#C11528" opacity="1.000000" stroke="none" 
	d="
M112.021774,298.733429 
	C112.000069,298.487732 112.258484,298.282623 112.759430,298.020935 
	C112.768608,298.234253 112.535255,298.504120 112.021774,298.733429 
z"/>
<path fill="#C11528" opacity="1.000000" stroke="none" 
	d="
M62.126247,291.220337 
	C62.338058,291.138184 62.619675,291.293365 62.963795,291.691101 
	C62.666164,291.920441 62.389416,291.761780 62.126247,291.220337 
z"/>
<path fill="#C11528" opacity="1.000000" stroke="none" 
	d="
M73.065002,298.242767 
	C73.281212,298.027435 73.578400,298.144562 74.014297,298.518433 
	C73.850311,298.624817 73.514641,298.558136 73.065002,298.242767 
z"/>
<path fill="#C11528" opacity="1.000000" stroke="none" 
	d="
M122.181473,292.000519 
	C122.128143,291.812653 122.333580,291.516815 122.782715,291.097290 
	C122.831024,291.279877 122.635628,291.586212 122.181473,292.000519 
z"/>
<path fill="#C11529" opacity="1.000000" stroke="none" 
	d="
M97.373718,274.017761 
	C105.516266,270.210693 107.255325,261.948975 107.708626,254.392807 
	C108.622833,239.153564 108.367180,223.809143 107.873665,208.531387 
	C107.469688,196.025650 105.258926,183.556458 105.213493,171.066086 
	C105.145233,152.297607 108.521484,133.967758 113.347855,115.728714 
	C116.117645,105.261566 114.831421,94.025383 110.042465,83.351570 
	C111.981689,88.263031 114.810944,93.418549 115.684326,98.886475 
	C117.506592,110.294907 113.566330,121.155640 111.305138,132.221359 
	C108.015892,148.318115 105.706833,164.593063 107.480545,181.195160 
	C108.254684,188.441254 107.941727,195.800079 108.206497,203.104660 
	C108.747208,218.022522 109.893021,232.946289 109.675697,247.851379 
	C109.574928,254.762741 107.064728,261.688629 105.258011,268.504852 
	C104.327614,272.014984 101.531822,273.901794 97.373718,274.017761 
z"/>
<path fill="#C11529" opacity="1.000000" stroke="none" 
	d="
M80.633018,100.133835 
	C81.831764,105.868858 83.629669,111.970367 83.743629,118.103172 
	C83.956039,129.534836 83.566444,141.012772 82.717819,152.418640 
	C81.948990,162.752151 80.311058,173.025635 78.918106,183.306839 
	C77.281273,195.388107 75.027794,207.405319 73.890472,219.529907 
	C72.412422,235.286957 70.513985,251.229095 77.884491,266.678711 
	C73.034943,264.684204 73.101845,259.533386 72.485168,255.419952 
	C70.229630,240.374924 70.672455,225.306488 73.521233,210.296707 
	C74.693771,204.118759 75.082764,197.795105 75.923531,191.550552 
	C77.801933,177.599167 80.584427,163.705841 81.414085,149.695023 
	C82.225334,135.994904 81.076996,122.178162 80.771507,108.413002 
	C80.713058,105.779236 80.574112,103.147247 80.633018,100.133835 
z"/>
<path fill="#C11529" opacity="1.000000" stroke="none" 
	d="
M83.715111,77.132446 
	C80.942535,83.515167 78.482925,90.114571 80.782127,97.909920 
	C80.048477,97.648979 79.135986,97.059433 78.758141,96.227173 
	C76.790375,91.892845 79.589310,80.660103 83.715111,77.132446 
z"/>
<path fill="#C11529" opacity="1.000000" stroke="none" 
	d="
M78.011963,267.338135 
	C83.050369,271.848999 88.844551,274.863861 96.576340,274.007935 
	C96.107986,274.595276 95.268532,275.544495 94.272987,275.754822 
	C89.031502,276.862030 80.489487,272.534424 78.011963,267.338135 
z"/>
<path fill="#C11529" opacity="1.000000" stroke="none" 
	d="
M101.032661,72.511200 
	C98.339104,72.796410 95.419197,72.809975 92.085976,72.763626 
	C94.571083,69.673424 97.598946,69.190292 101.032661,72.511200 
z"/>
<path fill="#C11529" opacity="1.000000" stroke="none" 
	d="
M89.896957,72.701340 
	C88.340767,74.127533 86.493042,75.451302 84.333328,76.913605 
	C85.882690,75.567734 87.744057,74.083336 89.896957,72.701340 
z"/>
<path fill="#C11529" opacity="1.000000" stroke="none" 
	d="
M108.001045,78.642593 
	C106.448723,77.515305 104.862190,76.039963 103.162453,74.257599 
	C104.688446,75.398567 106.327644,76.846542 108.001045,78.642593 
z"/>
<path fill="#C11529" opacity="1.000000" stroke="none" 
	d="
M110.065552,82.624046 
	C109.397675,81.862610 108.749954,80.747902 108.057785,79.301407 
	C108.704132,80.070007 109.394920,81.170387 110.065552,82.624046 
z"/>
<path fill="#C11529" opacity="1.000000" stroke="none" 
	d="
M102.914513,73.684105 
	C102.721886,73.758698 102.411629,73.576744 101.956169,73.155785 
	C102.139603,73.087044 102.468246,73.257301 102.914513,73.684105 
z"/>
<path fill="#FC0702" opacity="1.000000" stroke="none" 
	d="
M206.913589,129.952835 
	C198.458344,131.455002 189.974472,132.759338 181.654572,134.749252 
	C180.402588,135.048691 179.230438,138.537155 179.189667,140.573822 
	C178.956223,152.233429 179.078369,163.900101 179.075089,175.564377 
	C179.066666,205.558258 178.853439,235.554199 179.159439,265.544861 
	C179.261795,275.577484 180.771240,285.591522 181.386520,295.629425 
	C181.452271,296.701996 179.860550,298.830200 178.986389,298.858063 
	C170.685364,299.122620 162.370697,299.164001 154.065598,298.994049 
	C150.673355,298.924652 150.391418,296.783112 150.996170,293.710541 
	C152.788361,284.605011 154.779404,275.575378 153.281921,266.048523 
	C152.473694,260.906708 153.836945,255.458710 153.842545,250.148453 
	C153.901337,194.326523 154.007629,138.503967 153.754120,82.683167 
	C153.715927,74.274361 151.794159,65.883095 151.037125,57.457352 
	C150.941055,56.388214 152.607544,54.181385 153.506409,54.154770 
	C161.829620,53.908291 170.169342,53.879646 178.487656,54.208019 
	C179.610199,54.252335 181.626984,56.675201 181.560730,57.906906 
	C180.938019,69.482635 179.923996,81.036789 179.085114,92.601677 
	C178.760696,97.074249 178.725357,101.570099 178.322311,106.034027 
	C177.891678,110.803459 178.802917,111.666534 183.386581,110.574448 
	C192.899826,108.307861 202.478439,106.293083 211.914200,103.745262 
	C213.551376,103.303192 215.743317,100.771561 215.772614,99.170204 
	C216.021500,85.565094 217.020325,71.856506 213.152756,58.528362 
	C212.166702,55.130299 213.175751,53.894203 216.573730,53.926491 
	C224.238144,53.999325 231.905060,54.050308 239.568024,53.927773 
	C243.307816,53.867973 244.572998,55.843925 243.653946,58.951389 
	C239.785278,72.031883 241.244644,85.423912 241.211441,98.693504 
	C241.067993,156.014832 241.071381,213.336853 241.216934,270.658142 
	C241.235840,278.108398 242.196564,285.579010 243.081360,292.997223 
	C243.803467,299.051392 242.825394,300.174652 236.852844,299.748901 
	C230.912292,299.325378 224.941177,299.339203 218.984558,299.129822 
	C215.104797,298.993439 214.050934,296.958221 214.284027,293.180328 
	C215.029083,281.104584 215.826080,269.010284 215.900482,256.918854 
	C216.156815,215.264374 216.115814,173.608063 216.185547,131.952454 
	C216.192596,127.741508 212.953659,126.764427 207.112473,129.588287 
	C206.920868,129.910263 206.938278,129.977951 206.913589,129.952835 
z"/>
<path fill="#C4192B" opacity="1.000000" stroke="none" 
	d="
M219.685791,342.174957 
	C219.994858,352.335785 219.986267,362.704315 220.012253,373.542480 
	C219.434052,372.927063 218.304718,371.848877 218.290222,370.755890 
	C218.174316,362.023315 218.244308,353.287659 218.345856,344.553986 
	C218.354324,343.826324 219.012024,343.106232 219.685791,342.174957 
z"/>
<path fill="#C4192B" opacity="1.000000" stroke="none" 
	d="
M220.187164,374.273987 
	C223.697937,373.993256 227.407730,374.032440 231.580933,374.047729 
	C228.298096,377.073242 224.371140,376.426727 220.187164,374.273987 
z"/>
<path fill="#C4192B" opacity="1.000000" stroke="none" 
	d="
M230.824463,341.706604 
	C227.643173,341.995667 224.266144,341.962433 220.429626,341.971069 
	C223.343430,338.759369 226.961121,339.648651 230.824463,341.706604 
z"/>
<path fill="#C4192B" opacity="1.000000" stroke="none" 
	d="
M232.355453,374.096649 
	C233.821228,372.487610 235.632935,370.923492 237.754883,369.226074 
	C237.381760,370.829895 236.698395,372.566986 236.002594,374.661987 
	C235.990189,375.019867 235.991394,374.991486 236.003845,374.997559 
	C234.911331,374.716278 233.806351,374.428925 232.355453,374.096649 
z"/>
<path fill="#C4192B" opacity="1.000000" stroke="none" 
	d="
M241.527267,362.917725 
	C241.566559,361.315826 241.833130,359.495667 242.185516,357.275146 
	C242.099075,358.816376 241.926804,360.757935 241.527267,362.917725 
z"/>
<path fill="#C4192B" opacity="1.000000" stroke="none" 
	d="
M234.870270,343.710571 
	C233.785065,343.532990 232.545578,343.052246 231.136719,342.279785 
	C232.216888,342.461212 233.466415,342.934326 234.870270,343.710571 
z"/>
<path fill="#C4192B" opacity="1.000000" stroke="none" 
	d="
M240.254654,366.970795 
	C240.199692,366.420776 240.383743,365.816620 240.848602,365.045837 
	C240.917496,365.558380 240.705582,366.237518 240.254654,366.970795 
z"/>
<path fill="#C4192B" opacity="1.000000" stroke="none" 
	d="
M242.089355,355.733032 
	C241.745224,354.932831 241.414383,353.763184 241.164764,352.206482 
	C241.531525,353.000824 241.817093,354.182220 242.089355,355.733032 
z"/>
<path fill="#C4192B" opacity="1.000000" stroke="none" 
	d="
M241.006683,350.831543 
	C240.442841,350.539032 239.812851,349.931580 239.219940,348.985840 
	C239.818192,349.270538 240.379349,349.893585 241.006683,350.831543 
z"/>
<path fill="#C4192B" opacity="1.000000" stroke="none" 
	d="
M238.974396,347.861877 
	C238.781281,347.908417 238.487015,347.708954 238.116043,347.250610 
	C238.317307,347.199799 238.595276,347.407806 238.974396,347.861877 
z"/>
<path fill="#C4192B" opacity="1.000000" stroke="none" 
	d="
M237.929321,346.738159 
	C237.731644,346.800842 237.450714,346.638763 237.122131,346.228790 
	C237.406403,346.050140 237.663589,346.227631 237.929321,346.738159 
z"/>
<path fill="#C4192B" opacity="1.000000" stroke="none" 
	d="
M236.946594,345.690430 
	C236.665894,345.909210 236.389679,345.751709 236.120331,345.215332 
	C236.396439,345.007355 236.671066,345.166534 236.946594,345.690430 
z"/>
<path fill="#C4192B" opacity="1.000000" stroke="none" 
	d="
M235.901520,344.737732 
	C235.722275,344.795074 235.431564,344.634491 235.064438,344.226013 
	C235.313568,344.072540 235.580917,344.253113 235.901520,344.737732 
z"/>
<path fill="#C4192B" opacity="1.000000" stroke="none" 
	d="
M239.304993,367.928345 
	C239.237823,367.745789 239.387833,367.457367 239.779984,367.091736 
	C239.957001,367.346680 239.790329,367.616028 239.304993,367.928345 
z"/>
<path fill="#C4192B" opacity="1.000000" stroke="none" 
	d="
M238.338547,368.966675 
	C238.128159,368.694153 238.283997,368.423584 238.811890,368.162354 
	C239.008118,368.431244 238.848404,368.696869 238.338547,368.966675 
z"/>
</svg>